<svg width="176" height="58" viewBox="0 0 176 58" fill="none" xmlns="http://www.w3.org/2000/svg">
<g id="c1">
<rect width="176" height="58" fill="#E8E8E8"/>
</g>
<g id="ink.mark">
<path d="M32.7812 9.88533C41.7249 -0.760292 58.3861 -3.18724 69.9951 4.46444L76.4414 8.71346L43.6602 47.733C34.7166 58.3787 18.0554 60.8064 6.44629 53.1549L0 48.9058L32.7812 9.88533Z" fill="#171111"/>
<path d="M82.1826 9.88533C91.1262 -0.760354 107.787 -3.1871 119.396 4.46444L125.843 8.71346L93.0615 47.733C84.1179 58.3787 67.4568 60.8065 55.8477 53.1549L49.4014 48.9058L82.1826 9.88533Z" fill="#171111"/>
<path d="M131.403 9.88533C140.347 -0.760463 157.009 -3.18734 168.618 4.46444L175.063 8.71346L142.282 47.733C133.339 58.3788 116.677 60.8066 105.068 53.1549L98.6221 48.9058L131.403 9.88533Z" fill="#171111"/>
</g>
</svg>
