<svg width="316" height="474" viewBox="0 0 316 474" fill="none" xmlns="http://www.w3.org/2000/svg">
<g clip-path="url(#clip0_1508_831)">
<rect width="316" height="474" fill="#25805A"/>
<rect width="316" height="474" fill="#25805A"/>
<path d="M109.416 363.608L18.1911 259.265C14.9832 255.596 8.99193 258.575 9.98126 263.347L38.3153 400.02C43.2969 424.05 32.7408 448.632 11.8864 461.567L-2.30871 470.372C-6.31024 472.854 -4.63649 479.02 0.0707861 479.139L326.786 487.341C328.835 487.393 330.684 486.122 331.371 484.191L376.157 358.23C377.668 353.979 372.947 350.22 369.143 352.645L279.561 409.747C266.724 417.93 250.317 406.826 253.141 391.868L305.371 115.172C306.399 109.725 298.844 107.243 296.441 112.238L209.583 292.83C206.675 298.877 198.028 298.773 195.265 292.658L86.7761 52.5295C84.5095 47.5124 76.9508 49.7415 77.7692 55.1857L123.176 357.234C124.349 365.039 114.611 369.55 109.416 363.608Z" fill="#FE4802"/>
</g>
<defs>
<clipPath id="clip0_1508_831">
<rect width="316" height="474" fill="white"/>
</clipPath>
</defs>
</svg>
