<svg width="100" height="100" viewBox="0 0 100 100" fill="none" xmlns="http://www.w3.org/2000/svg">
<g clip-path="url(#clip0_1508_853)">
<rect width="100" height="100" fill="#FE4802"/>
<rect width="100" height="100" fill="#F52020"/>
<path d="M38 0.101562C43.7082 0.101562 48.5569 14.2518 50.3047 33.9297C52.4133 21.5992 56.8578 13.1016 62 13.1016C68.236 13.1016 73.4451 25.5987 74.707 42.2734C76.4651 32.8622 81.305 26.1016 87 26.1016C94.1797 26.1016 100 36.8467 100 50.1016C100 63.3564 94.1797 74.1016 87 74.1016C81.3048 74.1016 76.465 67.3404 74.707 57.9287C73.4452 74.604 68.2361 87.1016 62 87.1016C56.8576 87.1016 52.4133 78.6035 50.3047 66.2725C48.557 85.9509 43.7083 100.102 38 100.102C31.5634 100.102 26.2199 82.1101 25.1826 58.4893C23.34 67.6076 18.5814 74.1016 13 74.1016C5.8203 74.1016 0 63.3564 0 50.1016C0 36.8467 5.8203 26.1016 13 26.1016C18.5812 26.1016 23.3399 32.5951 25.1826 41.7129C26.22 18.0925 31.5635 0.101562 38 0.101562Z" fill="#282828"/>
</g>
<defs>
<clipPath id="clip0_1508_853">
<rect width="100" height="100" fill="white"/>
</clipPath>
</defs>
</svg>
