<svg width="181" height="181" viewBox="0 0 181 181" fill="none" xmlns="http://www.w3.org/2000/svg">
<g id="c1">
<rect width="181" height="181" fill="#F198C1"/>
</g>
<g id="c2">
<path d="M89.503 12.9187C89.5979 11.688 91.402 11.688 91.497 12.9187L96.236 74.322C96.299 75.138 97.2621 75.5369 97.8836 75.0044L144.653 34.9367C145.591 34.1336 146.866 35.4093 146.063 36.3467L105.996 83.1164C105.463 83.7379 105.862 84.701 106.678 84.764L168.081 89.503C169.312 89.5979 169.312 91.402 168.081 91.497L106.678 96.236C105.862 96.299 105.463 97.2621 105.996 97.8836L146.063 144.653C146.866 145.591 145.591 146.866 144.653 146.063L97.8836 105.996C97.2621 105.463 96.299 105.862 96.236 106.678L91.497 168.081C91.4021 169.312 89.598 169.312 89.503 168.081L84.764 106.678C84.701 105.862 83.7379 105.463 83.1164 105.996L36.3468 146.063C35.4093 146.866 34.1336 145.591 34.9367 144.653L75.0044 97.8836C75.5369 97.2621 75.138 96.299 74.322 96.236L12.9187 91.497C11.688 91.4021 11.688 89.598 12.9187 89.503L74.322 84.764C75.138 84.701 75.5369 83.7379 75.0044 83.1164L34.9367 36.3468C34.1336 35.4093 35.4093 34.1336 36.3467 34.9367L83.1164 75.0044C83.7379 75.5369 84.701 75.138 84.764 74.322L89.503 12.9187Z" fill="#D8428D"/>
</g>
</svg>
