<svg width="100" height="100" viewBox="0 0 100 100" fill="none" xmlns="http://www.w3.org/2000/svg">
<g clip-path="url(#clip0_1508_847)">
<rect width="100" height="100" fill="#FEC702"/>
<rect width="100" height="100" fill="#FEC702"/>
<path d="M3 4.5C15.1503 4.5 25 14.3497 25 26.5V95.5C12.8497 95.5 3 85.6503 3 73.5V4.5Z" fill="#282828"/>
<path d="M51 13C63.1503 13 73 22.8497 73 35V87C60.8497 87 51 77.1503 51 65V13Z" fill="#282828"/>
<path d="M97 57C97 69.1503 87.1503 79 75 79V43C75 30.8497 84.8497 21 97 21V57Z" fill="#282828"/>
<path d="M49 69H27V31H49V69Z" fill="#282828"/>
</g>
<defs>
<clipPath id="clip0_1508_847">
<rect width="100" height="100" fill="white"/>
</clipPath>
</defs>
</svg>
